<?xml version="1.0" encoding="UTF-8"?>
<svg version="1.1" xmlns="http://www.w3.org/2000/svg" width="192" height="218">
<path d="M0 0 C5.61233444 5.04279522 8.46293285 10.48863596 9.3515625 17.953125 C10.42447909 42.23492158 -2.31963471 68.35771454 -18.23950195 86.10229492 C-27.09929424 95.62891502 -35.70352701 104.82305178 -49.375 105.4375 C-60.40928045 105.04233293 -68.27493993 99.55194948 -76 92 C-93.04532894 73.57100544 -108.81116642 46.12226991 -108.47290039 20.57861328 C-108.21669795 14.96715496 -107.07360947 10.6785005 -104 6 C-103.63390625 5.39027344 -103.2678125 4.78054687 -102.890625 4.15234375 C-96.63482515 -4.63280727 -84.41915969 -8.36065878 -74.328125 -10.4921875 C-50.40273287 -14.1427755 -20.30302684 -15.09155471 0 0 Z M-55 -10 C-55 -9.67 -55 -9.34 -55 -9 C-51.37 -9 -47.74 -9 -44 -9 C-44 -9.33 -44 -9.66 -44 -10 C-47.63 -10 -51.26 -10 -55 -10 Z M-86.75 6.75 C-95.31105272 16.74286642 -99.69566816 28.97903028 -99.29296875 42.19140625 C-98.58410575 48.98703954 -97.49182187 55.67775729 -93 61 C-93.05800781 60.04222656 -93.11601563 59.08445312 -93.17578125 58.09765625 C-94.05303557 36.97111868 -85.71035508 18.9389825 -71.6171875 3.3671875 C-66.76629059 -1.72106216 -62.52488271 -5.34171445 -56 -8 C-56 -8.33 -56 -8.66 -56 -9 C-67.54848048 -9.71651156 -79.15503172 -1.245362 -86.75 6.75 Z M-44 -9 C-42.515 -8.01 -42.515 -8.01 -41 -7 C-23.74017292 4.91006167 -10.04818535 24.12465613 -6 45 C-5.50201707 49.66248728 -5.19574284 54.31567129 -5 59 C0.65189813 50.52215281 0.90900152 38.73355094 -1 29 C-4.87889066 15.24756948 -12.56438812 3.37338195 -25.1484375 -3.79296875 C-31.49149546 -6.905355 -36.9333788 -8.76045352 -44 -9 Z M-6 59 C-5 61 -5 61 -5 61 Z M-93 61 C-92 63 -92 63 -92 63 Z M-92 63 C-88.46540436 73.15294565 -79.89573187 79.59774038 -70.6328125 84.37109375 C-57.58722779 90.2205656 -45.5091613 89.96009706 -32 86 C-24.34387477 82.83296881 -17.60860667 78.11729425 -12 72 C-11.67 71.01 -11.34 70.02 -11 69 C-13.74667529 70.0820236 -16.40890191 71.20027849 -19.0625 72.5 C-35.92169066 79.68248021 -62.10044012 78.66191718 -79 72 C-81.88768315 70.50534875 -84.35322825 68.90567566 -87 67 C-87.66 67 -88.32 67 -89 67 C-89.66 65.68 -90.32 64.36 -91 63 C-91.33 63 -91.66 63 -92 63 Z " fill="#FFFFFF" transform="translate(146,77)"/>
<path d="M0 0 C27.04614305 21.09210005 49.88595425 59.33318185 54.5 93.5 C55.49784424 105.32630212 54.41708885 116.61350407 47.25 126.4375 C33.65301385 142.1950242 12.2932844 145.93095004 -7.5 147.5 C-13.47649636 147.82675313 -19.45373786 147.84152076 -25.4375 147.8125 C-26.61631241 147.80976578 -26.61631241 147.80976578 -27.81893921 147.80697632 C-50.22089746 147.71961651 -74.47365871 145.30976382 -91.71484375 129.37109375 C-99.20519088 121.52016098 -101.59841267 112.03364514 -101.9375 101.375 C-101.06788049 66.90328252 -79.65028046 34.46628511 -57.5 9.5 C-56.88511719 8.80003906 -56.27023438 8.10007812 -55.63671875 7.37890625 C-40.53281674 -8.80642072 -18.58621813 -12.79969111 0 0 Z M-70.1171875 32.02734375 C-82.54421229 44.92292849 -89.23764522 61.10095332 -89.875 79 C-89.12828773 98.44323882 -81.27178748 115.38758777 -67.12890625 128.73828125 C-52.82864667 140.88778179 -35.21474356 146.00811624 -16.68261719 144.72753906 C0.11979307 142.9758784 15.876388 134.72697388 26.86572266 121.90673828 C38.1437665 107.60571362 44.10656758 90.80184418 42.5 72.5 C39.68276769 53.82052491 31.43999205 37.05476193 15.9765625 25.63671875 C-11.70170909 7.11844822 -45.51510181 8.92914731 -70.1171875 32.02734375 Z " fill="#FFFFFF" transform="translate(119.5,38.5)"/>
</svg>
