<?xml version="1.0" encoding="UTF-8" standalone="no"?>
<svg
   xmlns="http://www.w3.org/2000/svg"
   viewBox="0 0 20 20"
   width="20"
   height="20">
  <path
     d="M14.105,0.941C12.868,0.357 11.397,0 9.917,0C5.785,0 3.263,3.489 3.534,6.9c0.123,1.543 0.881,3.036 2.133,4.203a7.093,7.093 0 0 0 1.492,1.072 3.548,3.548 0 0 1 -0.783,-1.707c-0.28,-1.714 0.852,-4.236 3.742,-4.236c3.109,0 6.532,2.956 6.822,6.59c0.177,2.223 -0.666,4.225 -2.091,5.623c2.947,-1.712 4.929,-4.903 4.929,-8.557c0,-3.953 -2.32,-7.365 -5.673,-8.947z"
     style="fill:#00A5A8"
     id="path863" />
  <path
     d="M16.243,12.878C16.12,11.336 15.362,9.843 14.11,8.676a7.093,7.093 0 0 0 -1.492,-1.072 3.548,3.548 0 0 1 0.783,1.707c0.28,1.714 -0.852,4.236 -3.742,4.236c-3.109,0 -6.532,-2.956 -6.822,-6.59c-0.177,-2.223 0.666,-4.225 2.091,-5.623c-2.947,1.712 -4.929,4.903 -4.929,8.557c0,3.953 2.32,7.365 5.673,8.947c1.237,0.584 2.707,0.941 4.104,0.941c4.216,0 6.738,-3.489 6.467,-6.9z"
     style="fill:#00A5A8"
     id="path865" />
</svg>