<svg version="1.1" id="Layer_1" xmlns:x="ns_extend;" xmlns:i="ns_ai;" xmlns:graph="ns_graphs;" xmlns="http://www.w3.org/2000/svg" xmlns:xlink="http://www.w3.org/1999/xlink" x="0px" y="0px" viewBox="0 0 149.9 153.1" style="enable-background:new 0 0 149.9 153.1;" xml:space="preserve">
 <metadata>
  <sfw xmlns="ns_sfw;">
   <slices>
   </slices>
   <sliceSourceBounds bottomLeftOrigin="true" height="153.1" width="149.9" x="225.5" y="-257.3">
   </sliceSourceBounds>
  </sfw>
 </metadata>
 <g>
  <polygon points="16.9,137.7 5.4,137.7 5.4,127.6 0.2,127.6 0.2,152.7 5.4,152.7 5.4,142.5 16.9,142.5 16.9,152.7 22,152.7 
		22,127.6 16.9,127.6 	">
  </polygon>
  <path d="M45.7,142c0,4.1-2,6.3-5.7,6.3c-3.7,0-5.8-2.2-5.8-6.5v-14.2h-5.1V142c0,7.1,3.9,11.1,10.8,11.1c6.9,0,10.9-4.1,10.9-11.4
		v-14.2h-5.1V142z">
  </path>
  <polygon points="104.7,144.9 99,127.6 94.8,127.6 89.1,144.9 83.6,127.6 78.1,127.6 86.9,152.7 91.1,152.7 96.9,136.2 102.6,152.7 
		106.8,152.7 115.6,127.6 110.3,127.6 	">
  </polygon>
  <polygon points="124.8,141.9 134.1,141.9 134.1,137.3 124.8,137.3 124.8,132.2 138.3,132.2 138.3,127.6 119.7,127.6 119.7,152.7 
		138.7,152.7 138.7,148.1 124.8,148.1 	">
  </polygon>
  <rect x="144.8" y="127.6" width="5" height="25.2">
  </rect>
  <path d="M72.4,147.5l2.3,5.2H80l-11-25.2h-4.5l-11.1,25.2h5.2l2.3-5.2H72.4z M66.6,133.9l3.9,9h-7.7L66.6,133.9z">
  </path>
  <path d="M139,44.7c0.8-12.9-12.1-24.8-12.1-24.8S102.8,49,85.3,87.3c-0.1,0.2-0.1,0.5,0.1,0.7c0.1,0.1,0.4,0.2,0.7,0.1
		c6.6-3.3,33.9-17.3,45.4-28.3C131.5,59.8,138.7,54,139,44.7 M108.4,15.6c0,0-3-11.2-15.2-14.2c0,0-3.5-0.9-7.3-1.4
		c0,0-13.6,17.6-7,83.8c0,0.3,0.2,0.5,0.4,0.5c0.2,0.1,0.5,0,0.7-0.3c4.4-6.3,24.3-35.9,28.4-53.9C108.3,30.2,110.5,21.5,108.4,15.6
		 M89.7,97.5c-0.1,0.1-0.1,0.5,0.1,0.7c4.4,3.2,17.8,12.5,24.2,14.3c0,0,11.9,4.1,22.2-13.7c0,0-34.6-1.2-46.1-1.6
		C90,97.2,89.7,97.3,89.7,97.5 M148.5,58.1c0,0-39.1,21-59.4,34.7c-0.1,0.1-0.3,0.3-0.2,0.7c0.1,0.2,0.2,0.4,0.5,0.4
		c7.2,0,34.7,0,35.4-0.1c0,0,3.5-0.1,7.9-1.8c0,0,9.8-3.1,14.8-14.2C147.5,77.7,152,68.6,148.5,58.1 M60.7,92.7
		C40.5,79.1,1.3,58.1,1.3,58.1c-3.5,10.6,1,19.6,1,19.6c5.1,11.1,14.8,14.2,14.8,14.2c4.4,1.7,7.9,1.8,7.9,1.8
		c0.7,0.1,28.1,0.1,35.4,0.1c0.2,0,0.4-0.2,0.5-0.4C61,93,60.9,92.8,60.7,92.7 M59.7,97.2c-11.5,0.4-46.1,1.6-46.1,1.6
		c10.3,17.8,22.2,13.7,22.2,13.7c6.4-1.8,19.8-11.2,24.2-14.3c0.3-0.2,0.2-0.6,0.1-0.7C60.1,97.3,59.8,97.2,59.7,97.2 M56.7,1.4
		c-12.2,3-15.2,14.2-15.2,14.2c-2.1,5.9,0.1,14.6,0.1,14.6c4.1,18,24,47.6,28.4,53.9c0.2,0.2,0.4,0.3,0.7,0.3c0.2,0,0.3-0.2,0.4-0.5
		c6.6-66.3-7-83.8-7-83.8C60.2,0.5,56.7,1.4,56.7,1.4 M22.9,19.9c0,0-13,11.9-12.1,24.8c0.4,9.3,7.6,15.1,7.6,15.1
		c11.5,11,38.8,25.1,45.4,28.3c0.3,0.1,0.5,0.1,0.7-0.1c0.2-0.2,0.2-0.5,0.1-0.7C47,49,22.9,19.9,22.9,19.9">
  </path>
 </g>
</svg>