<?xml version="1.0" encoding="UTF-8"?>
<svg width="256px" height="213px" viewBox="0 0 256 213" version="1.1" xmlns="http://www.w3.org/2000/svg" preserveAspectRatio="xMidYMid">
    <title>Stability AI</title>
    <g>
        <path d="M72.418311,212.449785 C121.895828,212.449785 154.076327,186.244638 154.076327,146.823527 C154.076327,116.252053 134.503517,96.8259255 99.5072246,88.7808007 L77.0381637,82.0413304 C57.327608,77.6165118 45.8227858,72.3031898 48.5334508,58.7294108 C50.7884827,47.4372353 57.5348302,41.0624336 73.2228235,41.0624336 C123.095165,41.0624336 141.57308,58.7294108 141.57308,58.7294108 L141.57308,16.2373709 C141.57308,16.2373709 123.58314,0 73.2228235,0 C25.7565874,0 2.1513352e-14,24.4237956 2.1513352e-14,62.235882 C2.1513352e-14,92.8073562 17.8493354,110.58622 54.0523968,119.033601 C56.5861391,119.667138 57.8811457,119.992613 57.9374165,120.010028 C63.4441876,121.714275 70.87496,123.966007 80.2297338,126.765222 C98.7335207,131.190041 103.491968,135.886327 103.491968,149.965296 C103.491968,162.837495 90.1175855,170.154389 72.418311,170.154389 C21.4319569,170.154389 2.1513352e-14,144.361226 2.1513352e-14,144.361226 L2.1513352e-14,191.438959 C2.1513352e-14,191.438959 13.4024656,212.449785 72.418311,212.449785 Z" fill="#00A5A8" class="fill-primary dark:fill-primary"></path>
        <circle cx="225.442113" cy="179.453847" r="30" fill="#00A5A8" class="fill-primary dark:fill-primary"/>
    </g>
</svg>
