<?xml version="1.0" encoding="UTF-8"?>
<svg version="1.1" xmlns="http://www.w3.org/2000/svg" width="64" height="64">
<path d="M0 0 C1.8569751 -0.00472824 1.8569751 -0.00472824 3.75146484 -0.009552 C5.11295609 -0.00776222 6.47444701 -0.00571127 7.8359375 -0.00341797 C9.22216814 -0.00409106 10.60839867 -0.00506113 11.99462891 -0.00631714 C14.90333172 -0.00779387 17.81200387 -0.00564037 20.72070312 -0.00097656 C24.45690348 0.00472073 28.19303202 0.00144159 31.92922974 -0.00454903 C34.79273016 -0.00815532 37.65621343 -0.00701574 40.51971436 -0.00442123 C41.89768482 -0.00375215 43.27565682 -0.00457973 44.65362549 -0.00690079 C46.57637504 -0.00942839 48.49913002 -0.0048957 50.421875 0 C52.06615479 0.00119339 52.06615479 0.00119339 53.74365234 0.00241089 C56.2109375 0.12939453 56.2109375 0.12939453 57.2109375 1.12939453 C57.30993311 2.93448826 57.33892901 4.74346381 57.34033203 6.55126953 C57.34348419 7.70916992 57.34663635 8.86707031 57.34988403 10.06005859 C57.34684769 11.95062988 57.34684769 11.95062988 57.34375 13.87939453 C57.34470673 15.16297852 57.34566345 16.4465625 57.34664917 17.76904297 C57.34812581 20.48943277 57.34597269 23.20978978 57.34130859 25.93017578 C57.33561131 29.42424122 57.33889049 32.91822986 57.34488106 36.41229248 C57.34935504 39.73466606 57.34622635 43.05701877 57.34375 46.37939453 C57.34577423 47.63977539 57.34779846 48.90015625 57.34988403 50.19873047 C57.34515579 51.93558105 57.34515579 51.93558105 57.34033203 53.70751953 C57.33953644 54.73264648 57.33874084 55.75777344 57.33792114 56.81396484 C57.2109375 59.12939453 57.2109375 59.12939453 56.2109375 60.12939453 C54.28331933 60.22860316 52.35204396 60.25738818 50.421875 60.25878906 C49.1838916 60.26194122 47.9459082 60.26509338 46.67041016 60.26834106 C45.30891891 60.26655128 43.94742799 60.26450033 42.5859375 60.26220703 C41.19970686 60.26288012 39.81347633 60.26385019 38.42724609 60.2651062 C35.51854328 60.26658293 32.60987113 60.26442943 29.70117188 60.25976562 C25.96497152 60.25406834 22.22884298 60.25734748 18.49264526 60.26333809 C15.62914484 60.26694438 12.76566157 60.2658048 9.90216064 60.2632103 C8.52419018 60.26254122 7.14621818 60.2633688 5.76824951 60.26568985 C3.84549996 60.26821745 1.92274498 60.26368477 0 60.25878906 C-1.64427979 60.25759567 -1.64427979 60.25759567 -3.32177734 60.25637817 C-5.7890625 60.12939453 -5.7890625 60.12939453 -6.7890625 59.12939453 C-6.88805811 57.3243008 -6.91705401 55.51532525 -6.91845703 53.70751953 C-6.92160919 52.54961914 -6.92476135 51.39171875 -6.92800903 50.19873047 C-6.9259848 48.93834961 -6.92396057 47.67796875 -6.921875 46.37939453 C-6.92331009 44.45401855 -6.92331009 44.45401855 -6.92477417 42.48974609 C-6.92625081 39.7693563 -6.92409769 37.04899928 -6.91943359 34.32861328 C-6.91373631 30.83454784 -6.91701549 27.3405592 -6.92300606 23.84649658 C-6.92748004 20.524123 -6.92435135 17.2017703 -6.921875 13.87939453 C-6.92389923 12.61901367 -6.92592346 11.35863281 -6.92800903 10.06005859 C-6.92485687 8.9021582 -6.92170471 7.74425781 -6.91845703 6.55126953 C-6.91726364 5.0135791 -6.91726364 5.0135791 -6.91604614 3.44482422 C-6.66785717 -1.08067289 -3.91929956 0.00284456 0 0 Z " fill="#66A9CA" transform="translate(6.7890625,1.87060546875)"/>
<path d="M0 0 C1.8569751 -0.00472824 1.8569751 -0.00472824 3.75146484 -0.009552 C5.11295609 -0.00776222 6.47444701 -0.00571127 7.8359375 -0.00341797 C9.22216814 -0.00409106 10.60839867 -0.00506113 11.99462891 -0.00631714 C14.90333172 -0.00779387 17.81200387 -0.00564037 20.72070312 -0.00097656 C24.45690348 0.00472073 28.19303202 0.00144159 31.92922974 -0.00454903 C34.79273016 -0.00815532 37.65621343 -0.00701574 40.51971436 -0.00442123 C41.89768482 -0.00375215 43.27565682 -0.00457973 44.65362549 -0.00690079 C46.57637504 -0.00942839 48.49913002 -0.0048957 50.421875 0 C52.06615479 0.00119339 52.06615479 0.00119339 53.74365234 0.00241089 C56.2109375 0.12939453 56.2109375 0.12939453 57.2109375 1.12939453 C57.30993311 2.93448826 57.33892901 4.74346381 57.34033203 6.55126953 C57.34348419 7.70916992 57.34663635 8.86707031 57.34988403 10.06005859 C57.34684769 11.95062988 57.34684769 11.95062988 57.34375 13.87939453 C57.34470673 15.16297852 57.34566345 16.4465625 57.34664917 17.76904297 C57.34812581 20.48943277 57.34597269 23.20978978 57.34130859 25.93017578 C57.33561131 29.42424122 57.33889049 32.91822986 57.34488106 36.41229248 C57.34935504 39.73466606 57.34622635 43.05701877 57.34375 46.37939453 C57.34577423 47.63977539 57.34779846 48.90015625 57.34988403 50.19873047 C57.34515579 51.93558105 57.34515579 51.93558105 57.34033203 53.70751953 C57.33953644 54.73264648 57.33874084 55.75777344 57.33792114 56.81396484 C57.2109375 59.12939453 57.2109375 59.12939453 56.2109375 60.12939453 C54.28331933 60.22860316 52.35204396 60.25738818 50.421875 60.25878906 C49.1838916 60.26194122 47.9459082 60.26509338 46.67041016 60.26834106 C45.30891891 60.26655128 43.94742799 60.26450033 42.5859375 60.26220703 C41.19970686 60.26288012 39.81347633 60.26385019 38.42724609 60.2651062 C35.51854328 60.26658293 32.60987113 60.26442943 29.70117188 60.25976562 C25.96497152 60.25406834 22.22884298 60.25734748 18.49264526 60.26333809 C15.62914484 60.26694438 12.76566157 60.2658048 9.90216064 60.2632103 C8.52419018 60.26254122 7.14621818 60.2633688 5.76824951 60.26568985 C3.84549996 60.26821745 1.92274498 60.26368477 0 60.25878906 C-1.64427979 60.25759567 -1.64427979 60.25759567 -3.32177734 60.25637817 C-5.7890625 60.12939453 -5.7890625 60.12939453 -6.7890625 59.12939453 C-6.87681855 56.98380626 -6.89601469 54.83535032 -6.88671875 52.68798828 C-6.88349609 51.3828125 -6.88027344 50.07763672 -6.87695312 48.73291016 C-6.86859651 47.34423763 -6.86013155 45.95556576 -6.8515625 44.56689453 C-6.84654916 43.17431797 -6.84198597 41.78173972 -6.83789062 40.38916016 C-6.82605684 36.96919583 -6.8095713 33.54931609 -6.7890625 30.12939453 C-6.1290625 30.12939453 -5.4690625 30.12939453 -4.7890625 30.12939453 C-4.7890625 39.36939453 -4.7890625 48.60939453 -4.7890625 58.12939453 C15.0109375 58.12939453 34.8109375 58.12939453 55.2109375 58.12939453 C55.2109375 42.28939453 55.2109375 26.44939453 55.2109375 10.12939453 C35.4109375 10.12939453 15.6109375 10.12939453 -4.7890625 10.12939453 C-4.7890625 15.40939453 -4.7890625 20.68939453 -4.7890625 26.12939453 C-5.4490625 27.11939453 -6.1090625 28.10939453 -6.7890625 29.12939453 C-6.81372131 25.16008464 -6.83190273 21.19080419 -6.84399414 17.22143555 C-6.84903307 15.87019067 -6.85586427 14.51895127 -6.86450195 13.16772461 C-6.87658669 11.22919019 -6.88176078 9.29061653 -6.88671875 7.35205078 C-6.89195557 6.18424072 -6.89719238 5.01643066 -6.90258789 3.81323242 C-6.69665393 -1.05522362 -4.31234941 0.00312983 0 0 Z " fill="#040607" transform="translate(6.7890625,1.87060546875)"/>
<path d="M0 0 C2.52046842 2.13857927 3.24527672 3.55539991 4.0625 6.75 C4.1875 10.0625 4.1875 10.0625 4.0625 12.75 C4.825625 12.688125 5.58875 12.62625 6.375 12.5625 C9.0625 12.75 9.0625 12.75 10.875 13.875 C12.59099028 16.58445834 12.396228 18.61295684 12.0625 21.75 C9.06557838 24.74692162 5.71503366 24.07486968 1.6953125 24.0859375 C0.86417938 24.0925943 0.03304626 24.0992511 -0.82327271 24.10610962 C-2.5834939 24.11624422 -4.34375357 24.12092639 -6.10400391 24.12060547 C-8.79524294 24.124972 -11.48483333 24.16126253 -14.17578125 24.19921875 C-15.88541105 24.20508812 -17.59504866 24.20905671 -19.3046875 24.2109375 C-20.51111404 24.23249405 -20.51111404 24.23249405 -21.74191284 24.25448608 C-25.35108534 24.22503349 -27.4978054 24.07227178 -30.44970703 21.90869141 C-32.47038848 18.97681328 -32.44675685 17.24204699 -31.9375 13.75 C-30.875 11.375 -30.875 11.375 -28.9375 9.75 C-25.25 9.5 -25.25 9.5 -21.9375 9.75 C-21.8446875 8.6671875 -21.8446875 8.6671875 -21.75 7.5625 C-20.52077477 3.30748959 -17.7810686 0.8774717 -14.046875 -1.40625 C-9.45964741 -3.24114104 -4.39728826 -1.87118649 0 0 Z " fill="#EDEDED" transform="translate(41.9375,19.25)"/>
<path d="M0 0 C19.8 0 39.6 0 60 0 C60 2.31 60 4.62 60 7 C40.2 7 20.4 7 0 7 C0 4.69 0 2.38 0 0 Z " fill="#908D8C" transform="translate(2,4)"/>
<path d="M0 0 C1.32 0 2.64 0 4 0 C4 15.51 4 31.02 4 47 C-15.8 47 -35.6 47 -56 47 C-56 46.01 -56 45.02 -56 44 C-52.51953903 43.21012983 -49.31679146 42.87762583 -45.75073242 42.88647461 C-44.21971138 42.88658791 -44.21971138 42.88658791 -42.65776062 42.88670349 C-41.02312614 42.89444542 -41.02312614 42.89444542 -39.35546875 42.90234375 C-38.2305452 42.9037587 -37.10562164 42.90517365 -35.9466095 42.90663147 C-32.36021241 42.91222069 -28.77387816 42.92477128 -25.1875 42.9375 C-22.75325611 42.94251639 -20.31901124 42.94707906 -17.88476562 42.95117188 C-11.9231335 42.9613349 -5.96163695 42.98091258 0 43 C0 28.81 0 14.62 0 0 Z " fill="#6CB6DB" transform="translate(58,13)"/>
<path d="M0 0 C10.89 0 21.78 0 33 0 C32.67 0.99 32.34 1.98 32 3 C34.64 2.67 37.28 2.34 40 2 C37.525 1.505 37.525 1.505 35 1 C35 0.67 35 0.34 35 0 C37.64 0 40.28 0 43 0 C43 1.65 43 3.3 43 5 C28.81 5 14.62 5 0 5 C0 3.35 0 1.7 0 0 Z " fill="#8C8C8C" transform="translate(19,5)"/>
<path d="M0 0 C0.66 0 1.32 0 2 0 C2 14.85 2 29.7 2 45 C-15.49 45 -32.98 45 -51 45 C-51 44.34 -51 43.68 -51 43 C-34.17 43 -17.34 43 0 43 C0 28.81 0 14.62 0 0 Z " fill="#A4D6F6" transform="translate(58,13)"/>
<path d="M0 0 C0.99 0.33 1.98 0.66 3 1 C3 1.99 3 2.98 3 4 C3.66 4.33 4.32 4.66 5 5 C5.33 3.35 5.66 1.7 6 0 C6.99 0.33 7.98 0.66 9 1 C9 1.99 9 2.98 9 4 C22.86 4.33 36.72 4.66 51 5 C51 5.33 51 5.66 51 6 C33.84 6 16.68 6 -1 6 C-1 1 -1 1 0 0 Z " fill="#71746E" transform="translate(11,5)"/>
<path d="M0 0 C0.99 0.33 1.98 0.66 3 1 C4.67150987 1.11513832 6.3469963 1.17636784 8.0222168 1.20532227 C9.55346443 1.2352401 9.55346443 1.2352401 11.11564636 1.26576233 C12.21572525 1.28247482 13.31580414 1.29918732 14.44921875 1.31640625 C16.14084892 1.3475779 16.14084892 1.3475779 17.86665344 1.37937927 C21.4735396 1.44482847 25.08049929 1.50373844 28.6875 1.5625 C31.13086702 1.60568961 33.57422656 1.64930404 36.01757812 1.69335938 C42.01164074 1.80050516 48.00577671 1.90228029 54 2 C54 2.33 54 2.66 54 3 C35.52 3 17.04 3 -2 3 C-2 2.34 -2 1.68 -2 1 C-1.34 0.67 -0.68 0.34 0 0 Z " fill="#74C2E8" transform="translate(4,56)"/>
<path d="M0 0 C7.85 -0.30192308 7.85 -0.30192308 11 2 C12.00496852 5.01490557 12.10335303 7.04181692 12.0625 10.1875 C12.05347656 11.08855469 12.04445313 11.98960938 12.03515625 12.91796875 C12.02355469 13.60503906 12.01195312 14.29210938 12 15 C13.423125 14.9071875 13.423125 14.9071875 14.875 14.8125 C15.90625 14.874375 16.9375 14.93625 18 15 C18.99 16.485 18.99 16.485 20 18 C18.906875 17.835 17.81375 17.67 16.6875 17.5 C13.12474127 16.93281816 13.12474127 16.93281816 10 17 C9.96261719 16.32453125 9.92523438 15.6490625 9.88671875 14.953125 C9.78810547 13.61507812 9.78810547 13.61507812 9.6875 12.25 C9.60048828 10.92742188 9.60048828 10.92742188 9.51171875 9.578125 C8.9231974 6.6130556 8.06732737 5.1843459 6 3 C2.91222828 1.71991738 2.91222828 1.71991738 0 1 C0 0.67 0 0.34 0 0 Z " fill="#F4F5F5" transform="translate(33,19)"/>
<path d="M0 0 C2.64 0 5.28 0 8 0 C8 1.65 8 3.3 8 5 C5.69 5 3.38 5 1 5 C0.67 4.34 0.34 3.68 0 3 C1.65 2.67 3.3 2.34 5 2 C3.35 1.67 1.7 1.34 0 1 C0 0.67 0 0.34 0 0 Z " fill="#AAAAAA" transform="translate(54,5)"/>
<path d="M0 0 C1.32 0.33 2.64 0.66 4 1 C3.67 2.65 3.34 4.3 3 6 C2.01 5.67 1.02 5.34 0 5 C0 3.35 0 1.7 0 0 Z " fill="#26404D" transform="translate(39,48)"/>
<path d="M0 0 C0.33 1.32 0.66 2.64 1 4 C1.94875 3.938125 2.8975 3.87625 3.875 3.8125 C4.90625 3.874375 5.9375 3.93625 7 4 C7.99 5.485 7.99 5.485 9 7 C7.906875 6.835 6.81375 6.67 5.6875 6.5 C2.12474127 5.93281816 2.12474127 5.93281816 -1 6 C-0.67 4.02 -0.34 2.04 0 0 Z " fill="#FBFBFB" transform="translate(44,30)"/>
<path d="M0 0 C0.99 0 1.98 0 3 0 C3 1.65 3 3.3 3 5 C1.68 5 0.36 5 -1 5 C-0.67 3.35 -0.34 1.7 0 0 Z " fill="#26414F" transform="translate(52,48)"/>
<path d="M0 0 C1.32 0.33 2.64 0.66 4 1 C4 2.32 4 3.64 4 5 C2.68 5 1.36 5 0 5 C0 3.35 0 1.7 0 0 Z " fill="#243D4A" transform="translate(27,48)"/>
<path d="M0 0 C1.32 0.33 2.64 0.66 4 1 C4 2.32 4 3.64 4 5 C2.68 5 1.36 5 0 5 C0 3.35 0 1.7 0 0 Z " fill="#26404D" transform="translate(15,48)"/>
<path d="M0 0 C2.3431213 0.25561323 4.67843403 0.59270772 7 1 C7.33 1.66 7.66 2.32 8 3 C5.03 3 2.06 3 -1 3 C-0.67 2.01 -0.34 1.02 0 0 Z " fill="#666666" transform="translate(52,5)"/>
<path d="M0 0 C0.99 0 1.98 0 3 0 C3.33 1.98 3.66 3.96 4 6 C2.68 6 1.36 6 0 6 C0 4.02 0 2.04 0 0 Z " fill="#294755" transform="translate(33,48)"/>
</svg>
