<?xml version="1.0" encoding="UTF-8"?>
<svg xmlns="http://www.w3.org/2000/svg" viewBox="0 0 512 512">
  <defs>
    <style>
      .primary { fill: #00A5A8; }
      .secondary { fill: #4db2bc; }
    </style>
  </defs>
  <!-- Outer Hexagon -->
  <path class="primary" d="M256 40L448 160v192L256 472 64 352V160L256 40z" fill="none" stroke="#00A5A8" stroke-width="24"/>
  
  <!-- Inner Hexagon Pattern -->
  <g class="secondary">
    <!-- Row 1 -->
    <path d="M200 140h40v40h-40z" transform="rotate(30 220 160)"/>
    <path d="M260 140h40v40h-40z" transform="rotate(30 280 160)"/>
    
    <!-- Row 2 -->
    <path d="M170 180h40v40h-40z" transform="rotate(30 190 200)"/>
    <path d="M230 180h40v40h-40z" transform="rotate(30 250 200)"/>
    <path d="M290 180h40v40h-40z" transform="rotate(30 310 200)"/>
    
    <!-- Row 3 -->
    <path d="M140 220h40v40h-40z" transform="rotate(30 160 240)"/>
    <path d="M200 220h40v40h-40z" transform="rotate(30 220 240)"/>
    <path d="M260 220h40v40h-40z" transform="rotate(30 280 240)"/>
    <path d="M320 220h40v40h-40z" transform="rotate(30 340 240)"/>
    
    <!-- Row 4 -->
    <path d="M170 260h40v40h-40z" transform="rotate(30 190 280)"/>
    <path d="M230 260h40v40h-40z" transform="rotate(30 250 280)"/>
    <path d="M290 260h40v40h-40z" transform="rotate(30 310 280)"/>
    
    <!-- Row 5 -->
    <path d="M200 300h40v40h-40z" transform="rotate(30 220 320)"/>
    <path d="M260 300h40v40h-40z" transform="rotate(30 280 320)"/>
  </g>
  
  <!-- Primary Color Hexagons -->
  <g class="primary">
    <!-- Additional hexagons with primary color -->
    <path d="M230 180h40v40h-40z" transform="rotate(30 250 200)"/>
    <path d="M260 220h40v40h-40z" transform="rotate(30 280 240)"/>
    <path d="M200 220h40v40h-40z" transform="rotate(30 220 240)"/>
    <path d="M230 260h40v40h-40z" transform="rotate(30 250 280)"/>
 </g>
</svg>