<?xml version="1.0" encoding="UTF-8"?>
<svg width="256px" height="256px" viewBox="0 -11.5 256 256" version="1.1" xmlns="http://www.w3.org/2000/svg" preserveAspectRatio="xMidYMid">
    <g>
        <path d="M210.483381,73.8236374 C207.827698,72.9095503 205.075867,72.0446761 202.24247,71.2267368 C202.708172,69.3261098 203.135596,67.4500894 203.515631,65.6059664 C209.753843,35.3248922 205.675082,10.9302478 191.747328,2.89849283 C178.392359,-4.80289661 156.551327,3.22703567 134.492936,22.4237776 C132.371761,24.2697233 130.244662,26.2241201 128.118477,28.2723861 C126.701777,26.917204 125.287358,25.6075897 123.876584,24.3549348 C100.758745,3.82852863 77.5866802,-4.82157937 63.6725966,3.23341515 C50.3303869,10.9571328 46.3792156,33.8904224 51.9945178,62.5880206 C52.5367729,65.3599011 53.1706189,68.1905639 53.8873982,71.068617 C50.6078941,71.9995641 47.4418534,72.9920277 44.4125156,74.0478303 C17.3093297,83.497195 0,98.3066828 0,113.667995 C0,129.533287 18.5815786,145.446423 46.8116526,155.095373 C49.0394553,155.856809 51.3511025,156.576778 53.7333796,157.260293 C52.9600965,160.37302 52.2875179,163.423318 51.7229345,166.398431 C46.3687351,194.597975 50.5500231,216.989464 63.8566899,224.664425 C77.6012619,232.590464 100.66852,224.443422 123.130185,204.809231 C124.905501,203.257196 126.687196,201.611293 128.472081,199.886102 C130.785552,202.113904 133.095375,204.222319 135.392897,206.199955 C157.14963,224.922338 178.637969,232.482469 191.932332,224.786092 C205.663234,216.837268 210.125675,192.78347 204.332202,163.5181 C203.88974,161.283006 203.374826,158.99961 202.796573,156.675661 C204.416503,156.196743 206.006814,155.702335 207.557482,155.188332 C236.905331,145.46465 256,129.745175 256,113.667995 C256,98.2510906 238.132466,83.3418093 210.483381,73.8236374 Z" fill="#00D8FF"></path>
        <path d="M201.345213,142.241309 C199.916709,142.708481 198.457345,143.16002 196.969525,143.594365 C194.444457,134.834154 190.935834,125.561729 186.562384,116.040607 C190.717566,106.730464 194.056474,97.6133622 196.449285,89.0115443 C199.097977,89.7870786 201.654439,90.6201792 204.09077,91.5146438 C227.815556,99.574825 242.243766,111.88491 242.243766,119.837632 C242.243766,128.276817 226.663314,141.336633 201.345213,142.241309 Z M190.240451,161.398933 C192.402656,173.285872 192.441122,183.718614 190.414816,191.432444 C188.613203,198.387332 185.481406,202.67087 181.810784,204.372126 C174.138444,207.933614 157.357747,201.641576 139.089138,186.266773 C136.952516,184.421251 134.81589,182.440614 132.693914,180.339853 C139.084879,173.398969 145.476837,165.426353 151.774517,156.628859 C162.688972,155.777255 172.895582,154.435965 182.071622,152.620051 C182.594654,154.73174 183.056596,156.802066 183.450704,158.823211 C185.86491,161.353883 188.185077,163.684176 190.240451,161.398933 Z M64.7119332,204.021325 C57.1531652,207.706903 51.1520749,207.818517 47.4805873,206.115812 C39.8060619,202.551462 36.4675813,185.8668 40.9831079,161.896537 C41.5008762,159.104488 42.1186454,156.246932 42.8223046,153.338839 C51.8587706,155.060024 62.0246904,156.306438 73.1492616,157.100446 C79.5059851,165.704726 86.1486934,173.678487 92.8489386,180.648537 C91.2773122,182.1906 89.7056858,183.654705 88.1479814,185.029814 C79.8584924,192.226887 71.7211814,200.444772 64.7119332,204.021325 Z M13.7561333,119.837632 C13.7561333,111.88491 27.6040581,99.7441378 50.7464464,91.7800586 C53.4619872,90.7697657 56.3374504,89.8268069 59.3448341,88.9376982 C61.7745891,97.6906766 65.1434469,106.956936 69.3886261,116.405443 C65.0955141,125.983783 61.6787234,135.390346 59.2249481,144.239131 C57.5451278,143.747333 55.9132304,143.225457 54.3293559,142.673502 C28.2376144,134.565661 13.7561333,122.247882 13.7561333,119.837632 Z M65.8087711,77.7099147 C61.0890694,52.8673244 64.2665212,35.3268148 71.9108671,31.7538974 C80.1734311,27.9416526 98.9156829,35.1243466 118.897129,52.2220832 C120.148403,53.3301969 121.399677,54.4864875 122.650952,55.6908551 C115.991189,62.6579624 109.447221,70.5570532 103.180306,79.1524086 C92.5558722,80.0415173 82.3471487,81.4077408 72.8825333,83.2225655 C72.2167862,81.3596638 71.5990179,79.5208391 71.0332708,77.7099147 C69.3534505,78.0714065 67.5775532,77.9597927 65.8087711,77.7099147 Z M167.704598,114.842444 C166.312825,112.296118 164.882739,109.749792 163.414235,107.242383 C171.70171,108.360914 179.599999,109.864937 186.936937,111.688762 C184.913049,118.906866 182.311399,126.47929 179.195184,134.199318 C175.431279,127.79345 171.629956,121.348665 167.704598,114.842444 Z M128.166899,50.9301398 C133.452597,56.6280408 138.738295,63.0675312 143.946575,70.0627759 C138.661459,69.8609749 133.337507,69.7591979 128.013555,69.7591979 C122.728439,69.7591979 117.443323,69.8609749 112.235043,70.0627759 C117.443323,63.1212312 122.881111,56.6280408 128.166899,50.9301398 Z M88.5906127,114.918909 C84.7272895,108.45179 80.9599432,101.907005 77.3445166,95.3622198 C80.3519003,87.2222824 83.8232729,79.2751147 87.7346106,71.6327532 C92.9428907,72.2460992 98.3472249,72.7575222 103.866063,73.1670909 C97.5991477,81.6095419 91.9026574,90.3938786 86.8385123,99.4478924 C87.3082825,104.638889 87.9280738,109.79097 88.5906127,114.918909 Z M104.398513,167.954888 C98.7020224,168.326107 93.2017113,168.799279 87.9280738,169.374208 C83.9207132,161.655378 80.3519003,153.592794 77.2485397,145.299445 C80.9119663,138.716243 84.7272895,132.133041 88.7345434,125.626673 C87.9760507,131.329574 87.3562594,136.993558 86.8385123,142.618626 C92.0537018,151.74836 97.8390553,160.113938 104.398513,167.954888 Z M128.319571,188.745907 C122.881111,182.894389 117.443323,176.248516 112.311625,169.138736 C117.519905,169.32862 122.881111,169.45248 128.319571,169.45248 C133.834409,169.45248 139.234743,169.32862 144.519859,169.062065 C139.349833,176.286433 133.834409,182.932306 128.319571,188.745907 Z M179.233649,145.070356 C176.27785,153.440017 172.824992,161.541148 169.016669,169.336561 C163.6541,168.723298 157.98861,168.212119 152.13028,167.802633 C158.574248,160.038091 164.441379,151.634131 169.66985,142.809128 C169.209491,137.542103 168.62787,132.275078 167.934695,127.046971 C172.018299,133.629555 175.850622,139.402513 179.233649,145.070356 Z M166.35129,96.7284433 C169.094833,102.100124 171.723065,107.471888 174.159396,112.805735 C170.776369,119.32537 167.13253,125.921211 163.26862,132.517052 C159.404711,139.112893 155.349219,145.555062 151.140622,151.806908 C145.091114,152.254697 138.776759,152.588449 132.27474,152.77725 C125.772721,152.966051 119.30912,153.040899 112.922664,152.966051 C105.166788,145.06218 97.9350322,136.520386 91.4329103,127.503676 C84.9307884,118.486967 79.3624751,109.394101 74.7469485,100.339151 C79.3624751,91.2842012 84.9307884,82.1913349 91.4329103,73.1746257 C97.9350322,64.1579165 105.166788,55.6161227 112.922664,47.7122516 C119.30912,47.6374037 125.772721,47.7122516 132.27474,47.9010525 C138.776759,48.0898534 145.091114,48.4236052 151.140622,48.8713944 C155.349219,55.1234075 159.404711,61.5655767 163.26862,68.1614177 C167.13253,74.7572587 170.776369,81.3530997 174.159396,87.8727347 C171.723065,93.2065816 169.094833,96.7284433 166.35129,96.7284433 Z" fill="#00D8FF"></path>
    </g>
</svg> 