<?xml version="1.0" encoding="UTF-8"?>
<svg width="256px" height="256px" viewBox="0 0 256 256" version="1.1" xmlns="http://www.w3.org/2000/svg" preserveAspectRatio="xMidYMid">
    <g>
        <rect fill="#3178C6" x="0" y="0" width="256" height="256" rx="28"></rect>
        <path d="M56.611,128.849 L56.611,143.785 L82.911,143.785 L109.211,143.785 L109.211,184.944 L109.211,226.104 L124.374,226.104 L139.536,226.104 L139.536,184.944 L139.536,143.785 L165.836,143.785 L192.136,143.785 L192.136,129.262 L192.136,114.739 L124.374,114.739 L56.611,114.739 L56.611,128.849 Z" fill="#FFFFFF" fill-rule="nonzero"></path>
        <path d="M206.186,185.156 C206.186,187.816 205.361,190.163 203.711,192.197 C202.061,194.231 199.661,195.248 196.511,195.248 C193.661,195.248 191.386,194.273 189.686,192.322 C187.986,190.371 187.136,187.983 187.136,185.156 C187.136,182.413 187.986,180.066 189.686,178.115 C191.386,176.164 193.661,175.189 196.511,175.189 C199.661,175.189 202.061,176.206 203.711,178.24 C205.361,180.274 206.186,182.579 206.186,185.156 Z" fill="#FFFFFF" fill-rule="nonzero"></path>
    </g>
</svg> 